<svg xmlns="http://www.w3.org/2000/svg" xmlns:xlink="http://www.w3.org/1999/xlink" width="500" zoomAndPan="magnify" viewBox="0 0 375 374.999991" height="500" preserveAspectRatio="xMidYMid meet" version="1.0"><defs><clipPath id="id1"><path d="M 0.1875 38.203125 L 298.28125 38.203125 L 298.28125 336.703125 L 0.1875 336.703125 Z M 0.1875 38.203125 " clip-rule="nonzero"/></clipPath></defs><rect x="-37.5" width="450" fill="#ffffff" y="-37.499999" height="449.999989" fill-opacity="1"/><rect x="-37.5" width="450" fill="#ffffff" y="-37.499999" height="449.999989" fill-opacity="1"/><rect x="-37.5" width="450" fill="#fdfff5" y="-37.499999" height="449.999989" fill-opacity="1"/><path fill="#bddd7a" d="M 105.113281 278.199219 C 117.644531 278.199219 127.835938 288.390625 127.835938 300.914062 C 127.835938 313.4375 117.644531 323.625 105.113281 323.625 C 92.589844 323.625 82.398438 313.4375 82.398438 300.914062 C 82.398438 288.390625 92.589844 278.199219 105.113281 278.199219 " fill-opacity="1" fill-rule="nonzero"/><path fill="#bddd7a" d="M 46.722656 76.949219 C 45.605469 76.730469 44.519531 76.386719 43.472656 75.949219 C 43.15625 75.816406 42.867188 75.625 42.558594 75.472656 C 41.941406 75.171875 41.328125 74.855469 40.746094 74.484375 C 54.050781 71.417969 67.519531 69.898438 80.882812 69.898438 C 115.886719 69.898438 150.25 80.277344 179.550781 100.3125 C 193.117188 109.589844 206.417969 119.5 219.285156 129.082031 C 267.035156 164.660156 312.144531 198.261719 372.726562 204.433594 C 374.21875 204.585938 374.59375 205.789062 374.6875 206.300781 C 374.800781 206.910156 374.800781 208.019531 373.570312 208.632812 C 315.902344 237.414062 247.433594 232.976562 194.878906 197.050781 L 187.675781 192.039062 C 185.25 187.988281 182.640625 183.660156 179.957031 179.25 C 179.621094 178.699219 179.289062 178.15625 178.953125 177.605469 C 177.398438 175.0625 175.785156 172.464844 174.167969 169.871094 C 176.6875 170.832031 179.390625 171.417969 182.246094 171.417969 C 194.792969 171.417969 204.964844 161.25 204.964844 148.707031 C 204.964844 136.164062 194.792969 125.996094 182.246094 125.996094 C 169.976562 125.996094 160.050781 135.738281 159.609375 147.894531 C 155.761719 142.699219 151.660156 137.753906 147.339844 133.039062 C 151.964844 129.292969 154.984375 123.640625 154.984375 117.222656 C 154.984375 105.933594 145.832031 96.78125 134.539062 96.78125 C 127.132812 96.78125 120.710938 100.753906 117.121094 106.644531 L 117.125 106.648438 C 96.335938 92.195312 72.523438 82.023438 46.722656 76.949219 " fill-opacity="1" fill-rule="nonzero"/><g clip-path="url(#id1)"><path fill="#80af0b" d="M 3.96875 38.203125 L 24.558594 69.367188 L 24.480469 69.386719 L 26.878906 72.875 L 27.769531 74.226562 C 28.847656 75.847656 30.097656 77.332031 31.472656 78.675781 C 31.484375 78.6875 31.5 78.699219 31.511719 78.710938 C 32.710938 79.882812 34.003906 80.941406 35.382812 81.867188 C 35.519531 81.957031 35.660156 82.027344 35.796875 82.117188 C 37.113281 82.964844 38.492188 83.71875 39.933594 84.320312 C 40.042969 84.367188 40.160156 84.398438 40.269531 84.445312 C 41.785156 85.054688 43.355469 85.542969 44.964844 85.859375 C 92.125 95.136719 132.40625 122.164062 158.382812 161.96875 C 162.800781 168.734375 167.09375 175.617188 171.300781 182.503906 C 171.582031 182.96875 171.859375 183.421875 172.136719 183.882812 C 176.191406 190.542969 180.175781 197.203125 184.082031 203.75 C 214.582031 254.886719 243.390625 303.183594 297 332.066406 C 298.316406 332.777344 298.207031 334.035156 298.09375 334.539062 C 297.964844 335.144531 297.542969 336.171875 296.171875 336.269531 C 231.882812 340.789062 170.304688 310.492188 135.507812 257.191406 C 135.277344 256.835938 110.6875 218.480469 101.347656 204.480469 L 0.558594 49.5625 C 0.15625 48.949219 0.078125 48.183594 0.34375 47.503906 L 3.96875 38.203125 " fill-opacity="1" fill-rule="nonzero"/></g><path fill="#80af0b" d="M 283.261719 220.394531 C 293.296875 220.394531 301.4375 212.261719 301.4375 202.226562 C 301.4375 192.191406 293.296875 184.058594 283.261719 184.058594 C 273.222656 184.058594 265.085938 192.191406 265.085938 202.226562 C 265.085938 212.261719 273.222656 220.394531 283.261719 220.394531 " fill-opacity="1" fill-rule="nonzero"/></svg>