<svg xmlns="http://www.w3.org/2000/svg" xmlns:xlink="http://www.w3.org/1999/xlink" width="500" zoomAndPan="magnify" viewBox="0 0 375 374.999991" height="500" preserveAspectRatio="xMidYMid meet" version="1.0"><defs><filter x="0%" y="0%" width="100%" height="100%" id="id1"><feColorMatrix values="0 0 0 0 1 0 0 0 0 1 0 0 0 0 1 0 0 0 1 0" color-interpolation-filters="sRGB"/></filter><g/><mask id="id2"><g filter="url(#id1)"><rect x="-37.5" width="450" fill="#000000" y="-37.499999" height="449.999989" fill-opacity="0.498"/></g></mask><clipPath id="id3"><path d="M 11 9 L 101.515625 9 L 101.515625 52 L 11 52 Z M 11 9 " clip-rule="nonzero"/></clipPath><clipPath id="id4"><path d="M 0.628906 1.058594 L 80.800781 1.058594 L 80.800781 81.308594 L 0.628906 81.308594 Z M 0.628906 1.058594 " clip-rule="nonzero"/></clipPath><clipPath id="id5"><rect x="0" width="102" y="0" height="82"/></clipPath></defs><rect x="-37.5" width="450" fill="#ffffff" y="-37.499999" height="449.999989" fill-opacity="1"/><rect x="-37.5" width="450" fill="#ffffff" y="-37.499999" height="449.999989" fill-opacity="1"/><rect x="-37.5" width="450" fill="#fdfff5" y="-37.499999" height="449.999989" fill-opacity="1"/><g mask="url(#id2)"><g transform="matrix(1, 0, 0, 1, 64, 145)"><g clip-path="url(#id5)"><path fill="#bddd7a" d="M 28.644531 65.578125 C 32.027344 65.578125 34.78125 68.316406 34.78125 71.683594 C 34.78125 75.050781 32.027344 77.789062 28.644531 77.789062 C 25.265625 77.789062 22.511719 75.050781 22.511719 71.683594 C 22.511719 68.316406 25.265625 65.578125 28.644531 65.578125 " fill-opacity="1" fill-rule="nonzero"/><g clip-path="url(#id3)"><path fill="#bddd7a" d="M 12.878906 11.472656 C 12.578125 11.414062 12.285156 11.324219 12.003906 11.203125 C 11.917969 11.167969 11.839844 11.117188 11.757812 11.078125 C 11.589844 10.996094 11.425781 10.910156 11.265625 10.8125 C 14.859375 9.984375 18.496094 9.578125 22.105469 9.578125 C 31.554688 9.578125 40.832031 12.367188 48.746094 17.753906 C 52.40625 20.25 56 22.914062 59.472656 25.488281 C 72.367188 35.054688 84.542969 44.085938 100.902344 45.746094 C 101.304688 45.789062 101.40625 46.113281 101.433594 46.25 C 101.460938 46.414062 101.460938 46.710938 101.128906 46.875 C 85.558594 54.613281 67.074219 53.421875 52.882812 43.761719 L 50.9375 42.414062 C 50.285156 41.324219 49.578125 40.164062 48.855469 38.976562 C 48.761719 38.828125 48.675781 38.683594 48.582031 38.535156 C 48.164062 37.851562 47.726562 37.152344 47.292969 36.453125 C 47.972656 36.714844 48.703125 36.871094 49.472656 36.871094 C 52.859375 36.871094 55.605469 34.136719 55.605469 30.765625 C 55.605469 27.394531 52.859375 24.660156 49.472656 24.660156 C 46.160156 24.660156 43.480469 27.277344 43.359375 30.546875 C 42.320312 29.148438 41.214844 27.820312 40.046875 26.554688 C 41.296875 25.546875 42.109375 24.027344 42.109375 22.300781 C 42.109375 19.265625 39.640625 16.804688 36.589844 16.804688 C 34.589844 16.804688 32.855469 17.875 31.886719 19.457031 L 31.890625 19.457031 C 26.277344 15.574219 19.847656 12.835938 12.878906 11.472656 " fill-opacity="1" fill-rule="nonzero"/></g><g clip-path="url(#id4)"><path fill="#80af0b" d="M 1.335938 1.058594 L 6.894531 9.433594 L 6.875 9.441406 L 7.523438 10.378906 L 7.761719 10.742188 C 8.054688 11.175781 8.390625 11.578125 8.761719 11.9375 C 8.765625 11.941406 8.769531 11.945312 8.773438 11.949219 C 9.097656 12.261719 9.445312 12.546875 9.820312 12.796875 C 9.855469 12.820312 9.894531 12.839844 9.929688 12.863281 C 10.285156 13.089844 10.65625 13.292969 11.046875 13.457031 C 11.078125 13.46875 11.109375 13.476562 11.136719 13.488281 C 11.546875 13.652344 11.972656 13.785156 12.40625 13.867188 C 25.140625 16.363281 36.015625 23.628906 43.027344 34.328125 C 44.222656 36.148438 45.378906 38 46.515625 39.851562 C 46.59375 39.976562 46.667969 40.097656 46.742188 40.222656 C 47.835938 42.011719 48.914062 43.800781 49.96875 45.5625 C 58.203125 59.3125 65.980469 72.296875 80.457031 80.058594 C 80.8125 80.25 80.78125 80.589844 80.75 80.726562 C 80.71875 80.886719 80.601562 81.164062 80.230469 81.191406 C 62.875 82.40625 46.246094 74.261719 36.851562 59.929688 C 36.789062 59.835938 30.152344 49.523438 27.628906 45.757812 L 0.414062 4.109375 C 0.308594 3.945312 0.285156 3.738281 0.359375 3.558594 L 1.335938 1.058594 " fill-opacity="1" fill-rule="nonzero"/></g><path fill="#80af0b" d="M 76.746094 50.039062 C 79.457031 50.039062 81.652344 47.851562 81.652344 45.152344 C 81.652344 42.457031 79.457031 40.269531 76.746094 40.269531 C 74.035156 40.269531 71.839844 42.457031 71.839844 45.152344 C 71.839844 47.851562 74.035156 50.039062 76.746094 50.039062 " fill-opacity="1" fill-rule="nonzero"/></g></g></g><g fill="#6738c4" fill-opacity="1"><g transform="translate(107.395668, 182.860972)"><g><path d="M 13.722656 -39.289062 C 13.664062 -40.882812 13.609375 -42.476562 13.496094 -44.070312 C 13.378906 -45.492188 13.152344 -45.664062 11.785156 -45.4375 C 11.101562 -45.265625 10.417969 -45.152344 9.738281 -44.980469 C 8.199219 -44.695312 8.140625 -44.640625 7.914062 -43.046875 C 7.515625 -40.027344 7.289062 -37.066406 7.230469 -34.050781 C 7.117188 -28.695312 7.117188 -23.289062 7.230469 -17.9375 C 7.230469 -17.480469 7.230469 -17.082031 7.230469 -16.625 C 7.230469 -16.171875 6.945312 -15.941406 6.492188 -16.058594 C 5.636719 -16.285156 4.78125 -16.457031 3.984375 -16.683594 C 3.246094 -16.910156 3.019531 -16.570312 2.847656 -15.941406 C 2.675781 -15.203125 2.960938 -14.746094 3.699219 -14.519531 C 4.667969 -14.292969 5.578125 -14.007812 6.492188 -13.777344 C 7.058594 -13.609375 7.34375 -13.324219 7.402344 -12.753906 C 7.402344 -12.355469 7.457031 -11.898438 7.515625 -11.5 C 7.742188 -7.628906 8.027344 -3.757812 8.3125 0.113281 C 8.371094 1.082031 8.425781 2.050781 8.597656 2.960938 C 8.769531 4.328125 9.054688 4.5 10.417969 4.382812 C 11.046875 4.328125 11.671875 4.269531 12.296875 4.214844 C 14.007812 4.042969 14.175781 3.871094 14.121094 2.277344 C 14.121094 1.820312 14.121094 1.421875 14.121094 0.96875 C 13.835938 -3.246094 13.777344 -7.515625 13.777344 -11.730469 C 13.777344 -13.210938 13.777344 -13.210938 15.203125 -13.496094 C 18.277344 -14.0625 21.066406 -15.144531 23.6875 -16.855469 C 30.234375 -21.179688 33.59375 -28.753906 32.171875 -35.984375 C 31.828125 -37.695312 31.144531 -39.171875 29.894531 -40.371094 C 27.046875 -43.101562 23.058594 -43.332031 19.585938 -40.9375 C 17.652344 -39.628906 16.171875 -37.808594 14.917969 -35.871094 C 14.632812 -35.414062 14.460938 -34.902344 13.835938 -34.503906 C 13.777344 -36.214844 13.777344 -37.75 13.722656 -39.289062 Z M 18.105469 -34.960938 C 19.1875 -36.667969 20.441406 -38.148438 22.09375 -39.34375 C 23.289062 -40.140625 23.6875 -40.140625 24.769531 -39.117188 C 25.679688 -38.148438 26.304688 -37.011719 26.535156 -35.699219 C 27.5 -30.292969 26.875 -25.167969 23.402344 -20.613281 C 21.296875 -17.878906 18.5625 -16.171875 15.144531 -15.542969 C 13.835938 -15.257812 13.835938 -15.316406 13.777344 -16.683594 C 13.777344 -17.878906 13.777344 -19.015625 13.777344 -20.214844 C 13.4375 -25.679688 15.429688 -30.40625 18.105469 -34.960938 Z M 18.105469 -34.960938 "/></g></g></g><g fill="#6738c4" fill-opacity="1"><g transform="translate(139.223484, 182.860972)"><g><path d="M 23.855469 -16.511719 C 22.945312 -17.136719 22.492188 -17.136719 21.921875 -16.457031 C 21.351562 -15.773438 20.894531 -15.089844 20.382812 -14.40625 C 17.992188 -11.046875 15.488281 -7.742188 12.8125 -4.613281 C 12.355469 -4.042969 11.898438 -3.53125 11.273438 -3.132812 C 10.417969 -2.5625 9.738281 -2.621094 8.996094 -3.417969 C 8.539062 -3.929688 8.140625 -4.554688 7.972656 -5.179688 C 7.003906 -8.257812 6.261719 -11.386719 6.148438 -14.632812 C 6.148438 -15.429688 6.378906 -15.773438 7.175781 -16 C 11.617188 -17.308594 14.0625 -20.328125 14.746094 -24.824219 C 15.089844 -27.332031 14.347656 -29.4375 12.242188 -30.917969 C 10.191406 -32.339844 7.972656 -32.054688 5.863281 -30.859375 C 3.984375 -29.722656 2.621094 -28.070312 1.59375 -26.136719 C -0.113281 -22.832031 -0.796875 -19.300781 -0.96875 -15.601562 C -1.023438 -14.40625 -0.855469 -13.265625 -0.625 -12.070312 C -0.113281 -8.882812 1.023438 -5.921875 3.132812 -3.359375 C 5.75 -0.171875 12.296875 0.855469 15.542969 -3.53125 C 18.390625 -7.34375 21.179688 -11.21875 23.855469 -15.203125 C 24.140625 -15.601562 24.539062 -16.058594 23.855469 -16.511719 Z M 7.117188 -23.515625 C 7.457031 -24.9375 7.972656 -26.363281 8.539062 -27.730469 C 8.710938 -28.183594 8.996094 -28.695312 9.566406 -28.640625 C 10.078125 -28.582031 10.304688 -28.128906 10.535156 -27.671875 C 10.535156 -27.558594 10.589844 -27.445312 10.589844 -27.332031 C 11.558594 -24.371094 9.792969 -19.644531 7.117188 -18.050781 C 6.890625 -17.878906 6.605469 -17.765625 6.207031 -17.878906 C 6.207031 -19.757812 6.660156 -21.636719 7.117188 -23.515625 Z M 7.117188 -23.515625 "/></g></g></g><g fill="#6738c4" fill-opacity="1"><g transform="translate(160.688763, 182.860972)"><g><path d="M 30.519531 -15.941406 C 29.609375 -16.339844 29.4375 -16.285156 28.867188 -15.144531 C 27.613281 -12.699219 26.476562 -10.191406 25.222656 -7.800781 C 23.742188 -4.898438 22.320312 -1.992188 20.441406 0.625 C 20.15625 1.082031 19.929688 1.652344 19.300781 1.820312 C 18.960938 1.140625 18.960938 0.511719 18.960938 -0.171875 C 18.902344 -2.390625 18.960938 -4.667969 19.132812 -6.890625 C 19.472656 -12.980469 19.816406 -19.015625 19.871094 -25.109375 C 19.871094 -25.792969 19.871094 -26.476562 19.699219 -27.160156 C 19.585938 -27.5 19.472656 -27.84375 19.074219 -27.84375 C 17.480469 -27.84375 15.886719 -28.015625 14.347656 -27.5 C 13.835938 -27.332031 13.496094 -27.273438 12.980469 -27.386719 C 11.730469 -27.671875 10.476562 -27.898438 9.167969 -27.613281 C 5.179688 -26.875 2.734375 -24.3125 1.195312 -20.78125 C -0.113281 -17.820312 -0.511719 -14.691406 -0.285156 -11.5 C -0.226562 -9.964844 0.0585938 -8.425781 0.683594 -6.945312 C 1.253906 -5.464844 2.390625 -4.839844 3.929688 -4.839844 C 5.179688 -4.78125 6.261719 -5.238281 7.117188 -6.148438 C 7.914062 -7.058594 8.65625 -8.085938 9.28125 -9.167969 C 9.90625 -10.25 10.535156 -11.332031 11.21875 -12.46875 C 11.617188 -12.128906 11.445312 -11.785156 11.5 -11.5 C 11.617188 -9.28125 11.671875 -7.003906 12.070312 -4.78125 C 12.414062 -2.335938 12.867188 0.113281 14.0625 2.335938 C 15.65625 5.296875 19.816406 5.808594 22.09375 3.300781 C 22.945312 2.390625 23.628906 1.367188 24.199219 0.226562 C 26.648438 -4.5 28.980469 -9.339844 31.144531 -14.234375 C 31.65625 -15.375 31.601562 -15.488281 30.519531 -15.941406 Z M 12.980469 -23.34375 C 12.925781 -22.71875 12.8125 -22.035156 12.527344 -21.464844 C 10.589844 -16.910156 8.484375 -12.46875 5.921875 -8.257812 C 5.523438 -7.628906 5.238281 -6.660156 4.328125 -6.890625 C 3.417969 -7.117188 3.871094 -8.140625 3.757812 -8.824219 C 3.757812 -9.109375 3.757812 -9.453125 3.757812 -9.792969 C 3.871094 -13.894531 4.667969 -17.878906 6.890625 -21.464844 C 7.515625 -22.433594 8.199219 -23.402344 9.054688 -24.253906 C 9.507812 -24.710938 10.019531 -25.054688 10.703125 -25.222656 C 12.183594 -25.621094 13.152344 -24.882812 12.980469 -23.34375 Z M 12.980469 -23.34375 "/></g></g></g><g fill="#6738c4" fill-opacity="1"><g transform="translate(190.011353, 182.860972)"><g><path d="M 7.402344 -22.777344 C 7.457031 -24.65625 7.574219 -26.535156 7.628906 -28.414062 C 7.628906 -29.265625 7.574219 -30.121094 7.515625 -30.972656 C 7.457031 -31.65625 7.117188 -32.054688 6.378906 -31.941406 C 5.578125 -31.886719 4.726562 -31.828125 3.929688 -31.773438 C 2.335938 -31.601562 2.335938 -31.601562 1.9375 -30.0625 C 1.820312 -29.722656 1.765625 -29.4375 1.707031 -29.09375 C 0.683594 -23.117188 -0.0585938 -17.082031 -0.285156 -11.046875 C -0.511719 -3.984375 -0.0585938 3.019531 0.738281 10.019531 C 0.855469 11.21875 1.140625 12.414062 1.421875 13.664062 C 1.539062 14.40625 1.992188 14.746094 2.789062 14.632812 C 3.644531 14.578125 4.5 14.519531 5.351562 14.460938 C 6.890625 14.347656 7.175781 14.121094 6.945312 12.640625 C 6.320312 7.6875 6.71875 2.789062 6.546875 -2.164062 C 6.492188 -3.246094 6.546875 -3.300781 7.6875 -3.1875 C 12.183594 -2.902344 15.601562 -4.78125 18.21875 -8.257812 C 19.816406 -10.363281 21.066406 -12.640625 21.695312 -15.144531 C 22.035156 -16.398438 22.660156 -16.855469 23.855469 -17.082031 C 25.566406 -17.421875 27.273438 -17.9375 28.980469 -18.335938 C 29.496094 -18.449219 29.722656 -18.734375 29.664062 -19.246094 C 29.550781 -19.816406 29.265625 -20.097656 28.640625 -20.042969 C 28.527344 -20.042969 28.355469 -20.042969 28.183594 -19.984375 C 26.988281 -19.757812 25.734375 -19.585938 24.539062 -19.359375 C 22.605469 -18.960938 22.605469 -18.960938 22.433594 -20.953125 C 22.261719 -22.71875 21.808594 -24.3125 20.839844 -25.792969 C 18.847656 -28.925781 15.257812 -29.722656 12.128906 -27.730469 C 10.875 -26.933594 9.851562 -25.851562 8.9375 -24.597656 C 8.539062 -23.972656 8.085938 -23.402344 7.6875 -22.777344 C 7.574219 -22.777344 7.515625 -22.777344 7.402344 -22.777344 Z M 12.527344 -24.597656 C 12.867188 -25.167969 13.324219 -25.621094 13.835938 -26.019531 C 14.976562 -26.816406 15.941406 -26.703125 16.738281 -25.566406 C 16.96875 -25.222656 17.136719 -24.824219 17.308594 -24.425781 C 17.9375 -22.546875 17.878906 -20.613281 17.820312 -18.675781 C 17.820312 -18.105469 17.480469 -17.820312 16.96875 -17.707031 C 13.949219 -16.910156 11.046875 -15.828125 8.257812 -14.292969 C 9.109375 -18.050781 10.648438 -21.410156 12.527344 -24.597656 Z M 16.96875 -14.917969 C 16 -11.785156 14.460938 -8.9375 12.015625 -6.605469 C 11.671875 -6.261719 11.273438 -5.980469 10.875 -5.75 C 9.738281 -5.179688 8.824219 -5.179688 8.027344 -5.921875 C 7.117188 -6.71875 6.832031 -7.6875 7.175781 -8.824219 C 7.402344 -9.453125 7.742188 -10.019531 8.140625 -10.476562 C 10.535156 -13.039062 13.609375 -14.347656 16.855469 -15.375 C 16.910156 -15.144531 17.023438 -15.03125 16.96875 -14.917969 Z M 16.96875 -14.917969 "/></g></g></g><g fill="#6738c4" fill-opacity="1"><g transform="translate(216.885649, 182.860972)"><g><path d="M 13.949219 -16.226562 C 14.347656 -16.171875 14.691406 -16.058594 15.03125 -16 C 18.335938 -15.203125 21.578125 -15.828125 24.769531 -16.625 C 25.453125 -16.796875 25.621094 -17.136719 25.453125 -17.820312 C 25.335938 -18.449219 24.882812 -18.503906 24.371094 -18.390625 C 23.742188 -18.21875 23.117188 -18.164062 22.492188 -17.992188 C 18.503906 -16.96875 15.316406 -18.277344 12.527344 -21.066406 C 12.070312 -21.523438 11.617188 -21.976562 11.160156 -22.433594 C 10.589844 -23.058594 9.964844 -23.628906 9.28125 -24.140625 C 7.574219 -25.394531 6.261719 -25.394531 4.613281 -24.085938 C 3.585938 -23.34375 2.847656 -22.375 2.164062 -21.351562 C -0.0585938 -17.9375 -1.195312 -14.175781 -1.539062 -10.136719 C -1.765625 -7.914062 -1.421875 -5.75 -0.398438 -3.757812 C 0.570312 -1.878906 1.992188 -0.570312 4.042969 -0.113281 C 8.085938 0.855469 11.160156 -0.738281 12.753906 -4.554688 C 14.175781 -8.085938 14.691406 -11.671875 13.722656 -15.429688 C 13.664062 -15.601562 13.722656 -15.828125 13.664062 -16.113281 C 13.894531 -16.171875 13.894531 -16.226562 13.949219 -16.226562 Z M 8.140625 -19.929688 C 11.160156 -14.917969 11.785156 -9.679688 9.222656 -4.328125 C 8.824219 -3.585938 8.425781 -2.902344 7.800781 -2.335938 C 7.058594 -1.652344 6.378906 -1.707031 5.75 -2.5625 C 5.351562 -3.074219 5.179688 -3.644531 4.953125 -4.269531 C 4.269531 -6.71875 4.269531 -9.167969 4.613281 -11.617188 C 4.953125 -13.894531 5.351562 -16.171875 6.09375 -18.335938 C 6.378906 -19.1875 6.71875 -20.042969 7.289062 -20.726562 C 7.742188 -20.554688 7.972656 -20.214844 8.140625 -19.929688 Z M 8.140625 -19.929688 "/></g></g></g><g fill="#6738c4" fill-opacity="1"><g transform="translate(239.603534, 182.860972)"><g><path d="M 13.496094 -13.609375 C 13.550781 -11.046875 13.835938 -8.484375 14.234375 -5.921875 C 14.746094 -2.277344 15.542969 1.253906 16.910156 4.667969 C 17.367188 5.695312 17.820312 6.71875 18.5625 7.574219 C 20.328125 9.621094 23.800781 9.339844 25.167969 7.058594 C 25.90625 5.863281 26.417969 4.554688 26.761719 3.246094 C 28.242188 -2.164062 29.609375 -7.574219 30.972656 -12.980469 C 31.144531 -13.609375 31.257812 -14.121094 30.40625 -14.347656 C 29.324219 -14.578125 28.867188 -14.40625 28.582031 -13.609375 C 28.527344 -13.324219 28.46875 -13.097656 28.355469 -12.8125 C 26.933594 -7.515625 25.453125 -2.277344 23.972656 3.019531 C 23.742188 3.816406 23.457031 4.667969 23.003906 5.410156 C 22.945312 5.578125 22.777344 5.808594 22.546875 5.75 C 22.207031 5.75 22.148438 5.464844 22.09375 5.238281 C 21.695312 3.816406 21.523438 2.390625 21.523438 0.910156 C 21.464844 -1.367188 21.523438 -3.699219 21.464844 -5.980469 C 21.179688 -17.082031 21.863281 -28.128906 22.605469 -39.117188 C 22.660156 -40.253906 22.660156 -41.394531 22.660156 -42.53125 C 22.660156 -43.160156 22.375 -43.5 21.695312 -43.5 C 20.496094 -43.445312 19.300781 -43.445312 18.164062 -43.445312 C 17.421875 -43.445312 17.082031 -43.046875 16.855469 -42.417969 C 16.511719 -41.28125 16.113281 -40.199219 15.828125 -39.003906 C 14.976562 -35.53125 14.519531 -31.941406 14.007812 -28.414062 C 13.777344 -26.875 13.722656 -26.933594 12.183594 -26.816406 C 7.800781 -26.476562 4.15625 -24.65625 1.707031 -20.839844 C 0.570312 -19.074219 -0.226562 -17.136719 -0.625 -15.03125 C -1.082031 -12.527344 -1.253906 -10.019531 -0.285156 -7.574219 C 0.683594 -4.953125 2.789062 -4.042969 5.351562 -3.816406 C 7.742188 -3.644531 9.167969 -4.898438 10.191406 -6.890625 C 11.160156 -8.824219 11.84375 -10.816406 12.640625 -12.8125 C 12.8125 -13.324219 12.925781 -13.835938 13.265625 -14.234375 C 13.550781 -14.0625 13.496094 -13.835938 13.496094 -13.609375 Z M 4.726562 -7.742188 C 4.097656 -12.183594 4.613281 -16.511719 7.003906 -20.441406 C 8.199219 -22.433594 9.792969 -23.914062 12.128906 -24.539062 C 12.242188 -24.539062 12.414062 -24.597656 12.582031 -24.597656 C 12.699219 -24.597656 12.8125 -24.539062 12.925781 -24.539062 C 13.152344 -24.140625 12.867188 -23.855469 12.753906 -23.515625 C 10.816406 -18.734375 8.824219 -14.007812 7.058594 -9.167969 C 6.660156 -8.140625 6.261719 -7.117188 5.410156 -6.320312 C 4.839844 -6.660156 4.78125 -7.230469 4.726562 -7.742188 Z M 4.726562 -7.742188 "/></g></g></g><g fill="#395a01" fill-opacity="1"><g transform="translate(173.488102, 216.518086)"><g><path d="M 10.453125 -11.0625 L 3.90625 -11.0625 L 3.90625 -7.296875 L 9.828125 -7.296875 L 9.828125 -5.34375 L 3.90625 -5.34375 L 3.90625 0 L 1.71875 0 L 1.71875 -13.03125 L 10.46875 -13.03125 Z M 10.453125 -11.0625 "/></g></g></g><g fill="#395a01" fill-opacity="1"><g transform="translate(190.717625, 216.518086)"><g><path d="M 3.90625 0 L 1.71875 0 L 1.71875 -13.03125 L 3.90625 -13.03125 Z M 3.90625 0 "/></g></g></g><g fill="#395a01" fill-opacity="1"><g transform="translate(202.863568, 216.518086)"><g><path d="M 10.609375 -11.0625 L 6.484375 -11.0625 L 6.484375 0 L 4.28125 0 L 4.28125 -11.0625 L 0.171875 -11.0625 L 0.171875 -13.03125 L 10.609375 -13.03125 Z M 10.609375 -11.0625 "/></g></g></g><g fill="#395a01" fill-opacity="1"><g transform="translate(220.167568, 216.518086)"><g><path d="M 13.015625 0 L 10.859375 0 L 3.90625 -9.34375 L 3.90625 0 L 1.71875 0 L 1.71875 -13.03125 L 3.875 -13.03125 L 10.859375 -3.671875 L 10.859375 -13.03125 L 13.015625 -13.03125 Z M 13.015625 0 "/></g></g></g><g fill="#395a01" fill-opacity="1"><g transform="translate(241.437873, 216.518086)"><g><path d="M 11.03125 -11.0625 L 3.90625 -11.0625 L 3.90625 -7.546875 L 10.28125 -7.546875 L 10.28125 -5.5625 L 3.90625 -5.5625 L 3.90625 -1.96875 L 11.25 -1.96875 L 11.25 0 L 1.71875 0 L 1.71875 -13.03125 L 11.03125 -13.03125 Z M 11.03125 -11.0625 "/></g></g></g><g fill="#395a01" fill-opacity="1"><g transform="translate(260.175707, 216.518086)"><g><path d="M 6 -13.125 C 7.6875 -13.125 9.207031 -12.679688 10.5625 -11.796875 L 9.640625 -9.859375 C 8.316406 -10.660156 7.046875 -11.0625 5.828125 -11.0625 C 5.171875 -11.0625 4.648438 -10.941406 4.265625 -10.703125 C 3.890625 -10.472656 3.703125 -10.140625 3.703125 -9.703125 C 3.703125 -9.265625 3.875 -8.894531 4.21875 -8.59375 C 4.570312 -8.289062 5.007812 -8.066406 5.53125 -7.921875 C 6.050781 -7.773438 6.613281 -7.59375 7.21875 -7.375 C 7.832031 -7.164062 8.398438 -6.9375 8.921875 -6.6875 C 9.441406 -6.445312 9.875 -6.066406 10.21875 -5.546875 C 10.5625 -5.035156 10.734375 -4.414062 10.734375 -3.6875 C 10.734375 -2.539062 10.273438 -1.625 9.359375 -0.9375 C 8.441406 -0.257812 7.257812 0.078125 5.8125 0.078125 C 4.820312 0.078125 3.859375 -0.109375 2.921875 -0.484375 C 1.992188 -0.859375 1.179688 -1.363281 0.484375 -2 L 1.4375 -3.890625 C 2.09375 -3.285156 2.8125 -2.816406 3.59375 -2.484375 C 4.382812 -2.160156 5.132812 -2 5.84375 -2 C 6.613281 -2 7.210938 -2.132812 7.640625 -2.40625 C 8.066406 -2.6875 8.28125 -3.078125 8.28125 -3.578125 C 8.28125 -4.023438 8.109375 -4.398438 7.765625 -4.703125 C 7.421875 -5.003906 6.988281 -5.226562 6.46875 -5.375 C 5.945312 -5.519531 5.378906 -5.691406 4.765625 -5.890625 C 4.160156 -6.097656 3.597656 -6.316406 3.078125 -6.546875 C 2.554688 -6.773438 2.117188 -7.144531 1.765625 -7.65625 C 1.421875 -8.164062 1.25 -8.78125 1.25 -9.5 C 1.25 -10.601562 1.679688 -11.484375 2.546875 -12.140625 C 3.421875 -12.796875 4.570312 -13.125 6 -13.125 Z M 6 -13.125 "/></g></g></g><g fill="#395a01" fill-opacity="1"><g transform="translate(278.280419, 216.518086)"><g><path d="M 6 -13.125 C 7.6875 -13.125 9.207031 -12.679688 10.5625 -11.796875 L 9.640625 -9.859375 C 8.316406 -10.660156 7.046875 -11.0625 5.828125 -11.0625 C 5.171875 -11.0625 4.648438 -10.941406 4.265625 -10.703125 C 3.890625 -10.472656 3.703125 -10.140625 3.703125 -9.703125 C 3.703125 -9.265625 3.875 -8.894531 4.21875 -8.59375 C 4.570312 -8.289062 5.007812 -8.066406 5.53125 -7.921875 C 6.050781 -7.773438 6.613281 -7.59375 7.21875 -7.375 C 7.832031 -7.164062 8.398438 -6.9375 8.921875 -6.6875 C 9.441406 -6.445312 9.875 -6.066406 10.21875 -5.546875 C 10.5625 -5.035156 10.734375 -4.414062 10.734375 -3.6875 C 10.734375 -2.539062 10.273438 -1.625 9.359375 -0.9375 C 8.441406 -0.257812 7.257812 0.078125 5.8125 0.078125 C 4.820312 0.078125 3.859375 -0.109375 2.921875 -0.484375 C 1.992188 -0.859375 1.179688 -1.363281 0.484375 -2 L 1.4375 -3.890625 C 2.09375 -3.285156 2.8125 -2.816406 3.59375 -2.484375 C 4.382812 -2.160156 5.132812 -2 5.84375 -2 C 6.613281 -2 7.210938 -2.132812 7.640625 -2.40625 C 8.066406 -2.6875 8.28125 -3.078125 8.28125 -3.578125 C 8.28125 -4.023438 8.109375 -4.398438 7.765625 -4.703125 C 7.421875 -5.003906 6.988281 -5.226562 6.46875 -5.375 C 5.945312 -5.519531 5.378906 -5.691406 4.765625 -5.890625 C 4.160156 -6.097656 3.597656 -6.316406 3.078125 -6.546875 C 2.554688 -6.773438 2.117188 -7.144531 1.765625 -7.65625 C 1.421875 -8.164062 1.25 -8.78125 1.25 -9.5 C 1.25 -10.601562 1.679688 -11.484375 2.546875 -12.140625 C 3.421875 -12.796875 4.570312 -13.125 6 -13.125 Z M 6 -13.125 "/></g></g></g><g fill="#6738c4" fill-opacity="1"><g transform="translate(76.864959, 242.609635)"><g><path d="M 4.179688 -7.101562 C 3.859375 -7.140625 3.613281 -7.140625 3.25 -7.140625 L 1.035156 -7.140625 L 1.035156 0 L 1.925781 0 L 1.925781 -2.917969 L 3.25 -2.917969 C 3.613281 -2.917969 3.859375 -2.917969 4.179688 -2.960938 C 5.214844 -3.09375 6.035156 -3.820312 6.035156 -5.03125 C 6.035156 -6.242188 5.320312 -6.957031 4.179688 -7.101562 Z M 4.128906 -3.714844 C 3.933594 -3.675781 3.652344 -3.664062 3.332031 -3.664062 L 1.925781 -3.664062 L 1.925781 -6.398438 L 3.332031 -6.398438 C 3.652344 -6.398438 3.933594 -6.386719 4.128906 -6.34375 C 4.636719 -6.230469 5.082031 -5.859375 5.082031 -5.03125 C 5.082031 -4.203125 4.636719 -3.828125 4.128906 -3.714844 Z M 4.128906 -3.714844 "/></g></g></g><g fill="#6738c4" fill-opacity="1"><g transform="translate(85.362275, 242.609635)"><g><path d="M 2.917969 -5.609375 C 2.660156 -5.609375 2.378906 -5.515625 2.152344 -5.363281 L 1.65625 -4.625 L 1.65625 -5.484375 L 0.765625 -5.484375 L 0.765625 0 L 1.65625 0 L 1.65625 -3.125 C 1.65625 -4.378906 2.359375 -4.925781 3.292969 -4.863281 L 3.292969 -5.539062 C 3.1875 -5.589844 3.0625 -5.609375 2.917969 -5.609375 Z M 2.917969 -5.609375 "/></g></g></g><g fill="#6738c4" fill-opacity="1"><g transform="translate(91.086104, 242.609635)"><g><path d="M 5.269531 -2.898438 C 5.269531 -4.503906 4.429688 -5.628906 2.917969 -5.628906 C 1.417969 -5.628906 0.308594 -4.503906 0.308594 -2.722656 C 0.308594 -0.785156 1.375 0.144531 2.804688 0.144531 C 3.933594 0.144531 4.980469 -0.445312 5.195312 -1.769531 L 4.265625 -1.769531 C 4.140625 -0.984375 3.558594 -0.539062 2.847656 -0.539062 C 2.039062 -0.539062 1.355469 -1.023438 1.273438 -2.472656 L 5.246094 -2.472656 C 5.269531 -2.671875 5.269531 -2.816406 5.269531 -2.898438 Z M 2.898438 -4.949219 C 3.796875 -4.949219 4.285156 -4.296875 4.367188 -3.15625 L 1.285156 -3.15625 C 1.386719 -4.328125 2.027344 -4.949219 2.898438 -4.949219 Z M 2.898438 -4.949219 "/></g></g></g><g fill="#6738c4" fill-opacity="1"><g transform="translate(99.076326, 242.609635)"><g><path d="M 5.382812 -4.027344 C 5.300781 -4.988281 4.625 -5.628906 3.425781 -5.628906 C 2.867188 -5.628906 2.464844 -5.539062 1.996094 -5.175781 L 1.65625 -4.542969 L 1.65625 -5.484375 L 0.765625 -5.484375 L 0.765625 0 L 1.65625 0 L 1.65625 -2.410156 C 1.65625 -4.285156 2.378906 -4.925781 3.238281 -4.925781 C 4.089844 -4.925781 4.441406 -4.449219 4.492188 -3.808594 C 4.511719 -3.53125 4.511719 -3.300781 4.511719 -3.023438 L 4.511719 0 L 5.402344 0 L 5.402344 -3.085938 C 5.402344 -3.53125 5.402344 -3.746094 5.382812 -4.027344 Z M 5.382812 -4.027344 "/></g></g></g><g fill="#6738c4" fill-opacity="1"><g transform="translate(107.521902, 242.609635)"><g><path d="M 3.914062 0 L 4.800781 0 C 4.71875 -0.609375 4.699219 -0.984375 4.699219 -1.398438 L 4.699219 -3.457031 C 4.699219 -3.695312 4.6875 -3.964844 4.667969 -4.179688 C 4.574219 -5.082031 4.027344 -5.628906 2.722656 -5.628906 C 1.511719 -5.628906 0.695312 -4.957031 0.609375 -3.789062 L 1.542969 -3.789062 C 1.605469 -4.542969 1.976562 -4.949219 2.722656 -4.949219 C 3.457031 -4.949219 3.746094 -4.617188 3.789062 -4.109375 C 3.808594 -3.902344 3.808594 -3.683594 3.808594 -3.445312 L 3.808594 -3.300781 L 3.457031 -3.300781 C 1.304688 -3.300781 0.371094 -2.660156 0.371094 -1.417969 C 0.371094 -0.402344 1.148438 0.144531 2.140625 0.144531 C 2.671875 0.144531 3.148438 0.0625 3.519531 -0.195312 L 3.820312 -0.785156 Z M 2.441406 -0.539062 C 1.769531 -0.539062 1.34375 -0.828125 1.34375 -1.492188 C 1.34375 -2.433594 2.296875 -2.753906 3.808594 -2.640625 L 3.808594 -2.082031 C 3.808594 -1.085938 3.269531 -0.539062 2.441406 -0.539062 Z M 2.441406 -0.539062 "/></g></g></g><g fill="#6738c4" fill-opacity="1"><g transform="translate(115.325851, 242.609635)"><g><path d="M 1.832031 -4.761719 L 2.855469 -4.761719 L 2.855469 -5.445312 L 1.832031 -5.445312 L 1.832031 -6.71875 L 0.941406 -6.71875 L 0.941406 -5.445312 L 0.207031 -5.445312 L 0.207031 -4.761719 L 0.941406 -4.761719 L 0.941406 -1.5625 C 0.941406 -1.253906 0.941406 -1.023438 0.953125 -0.878906 C 1.003906 -0.195312 1.355469 0.0820312 2.039062 0.0820312 C 2.289062 0.0820312 2.535156 0.0742188 2.792969 0.03125 L 2.792969 -0.621094 C 2.101562 -0.539062 1.882812 -0.652344 1.84375 -1.179688 C 1.832031 -1.324219 1.832031 -1.417969 1.832031 -1.605469 Z M 1.832031 -4.761719 "/></g></g></g><g fill="#6738c4" fill-opacity="1"><g transform="translate(120.87375, 242.609635)"><g><path d="M 3.914062 0 L 4.800781 0 C 4.71875 -0.609375 4.699219 -0.984375 4.699219 -1.398438 L 4.699219 -3.457031 C 4.699219 -3.695312 4.6875 -3.964844 4.667969 -4.179688 C 4.574219 -5.082031 4.027344 -5.628906 2.722656 -5.628906 C 1.511719 -5.628906 0.695312 -4.957031 0.609375 -3.789062 L 1.542969 -3.789062 C 1.605469 -4.542969 1.976562 -4.949219 2.722656 -4.949219 C 3.457031 -4.949219 3.746094 -4.617188 3.789062 -4.109375 C 3.808594 -3.902344 3.808594 -3.683594 3.808594 -3.445312 L 3.808594 -3.300781 L 3.457031 -3.300781 C 1.304688 -3.300781 0.371094 -2.660156 0.371094 -1.417969 C 0.371094 -0.402344 1.148438 0.144531 2.140625 0.144531 C 2.671875 0.144531 3.148438 0.0625 3.519531 -0.195312 L 3.820312 -0.785156 Z M 2.441406 -0.539062 C 1.769531 -0.539062 1.34375 -0.828125 1.34375 -1.492188 C 1.34375 -2.433594 2.296875 -2.753906 3.808594 -2.640625 L 3.808594 -2.082031 C 3.808594 -1.085938 3.269531 -0.539062 2.441406 -0.539062 Z M 2.441406 -0.539062 "/></g></g></g><g fill="#6738c4" fill-opacity="1"><g transform="translate(128.677699, 242.609635)"><g><path d="M 1.613281 -7.609375 L 0.722656 -7.609375 L 0.722656 -1.542969 C 0.722656 -1.242188 0.722656 -1.003906 0.734375 -0.816406 C 0.765625 -0.125 1.148438 0.0429688 1.667969 0.0429688 C 1.875 0.0429688 2.101562 0.03125 2.296875 0 L 2.296875 -0.640625 C 1.8125 -0.589844 1.644531 -0.703125 1.625 -1.054688 C 1.613281 -1.230469 1.613281 -1.40625 1.613281 -1.574219 Z M 1.613281 -7.609375 "/></g></g></g><g fill="#395a01" fill-opacity="1"><g transform="translate(147.678255, 242.609635)"><g><path d="M 4.179688 -7.101562 C 3.859375 -7.140625 3.613281 -7.140625 3.25 -7.140625 L 1.035156 -7.140625 L 1.035156 0 L 1.925781 0 L 1.925781 -2.917969 L 3.25 -2.917969 C 3.613281 -2.917969 3.859375 -2.917969 4.179688 -2.960938 C 5.214844 -3.09375 6.035156 -3.820312 6.035156 -5.03125 C 6.035156 -6.242188 5.320312 -6.957031 4.179688 -7.101562 Z M 4.128906 -3.714844 C 3.933594 -3.675781 3.652344 -3.664062 3.332031 -3.664062 L 1.925781 -3.664062 L 1.925781 -6.398438 L 3.332031 -6.398438 C 3.652344 -6.398438 3.933594 -6.386719 4.128906 -6.34375 C 4.636719 -6.230469 5.082031 -5.859375 5.082031 -5.03125 C 5.082031 -4.203125 4.636719 -3.828125 4.128906 -3.714844 Z M 4.128906 -3.714844 "/></g></g></g><g fill="#395a01" fill-opacity="1"><g transform="translate(156.175571, 242.609635)"><g><path d="M 3.03125 -5.628906 C 1.167969 -5.628906 0.308594 -4.296875 0.308594 -2.742188 C 0.308594 -1.199219 1.167969 0.144531 3.03125 0.144531 C 4.894531 0.144531 5.753906 -1.199219 5.753906 -2.742188 C 5.753906 -4.296875 4.894531 -5.628906 3.03125 -5.628906 Z M 3.03125 -0.539062 C 1.925781 -0.539062 1.285156 -1.460938 1.285156 -2.742188 C 1.285156 -4.035156 1.925781 -4.949219 3.03125 -4.949219 C 4.140625 -4.949219 4.78125 -4.035156 4.78125 -2.742188 C 4.78125 -1.460938 4.140625 -0.539062 3.03125 -0.539062 Z M 3.03125 -0.539062 "/></g></g></g><g fill="#395a01" fill-opacity="1"><g transform="translate(164.548708, 242.609635)"><g><path d="M 2.359375 -5.628906 C 1.230469 -5.628906 0.464844 -5.03125 0.464844 -4.027344 C 0.464844 -3.0625 1.253906 -2.660156 2.234375 -2.390625 C 3.15625 -2.140625 3.53125 -1.863281 3.53125 -1.335938 C 3.53125 -0.808594 3.054688 -0.539062 2.464844 -0.539062 C 1.832031 -0.539062 1.324219 -0.816406 1.179688 -1.613281 L 0.25 -1.613281 C 0.414062 -0.371094 1.273438 0.144531 2.402344 0.144531 C 3.558594 0.144531 4.441406 -0.371094 4.441406 -1.40625 C 4.441406 -2.339844 3.839844 -2.835938 2.578125 -3.167969 C 1.832031 -3.363281 1.375 -3.582031 1.375 -4.128906 C 1.375 -4.605469 1.667969 -4.949219 2.289062 -4.949219 C 2.929688 -4.949219 3.324219 -4.566406 3.445312 -3.921875 L 4.378906 -3.921875 C 4.265625 -4.925781 3.589844 -5.628906 2.359375 -5.628906 Z M 2.359375 -5.628906 "/></g></g></g><g fill="#395a01" fill-opacity="1"><g transform="translate(171.607535, 242.609635)"><g><path d="M 1.832031 -4.761719 L 2.855469 -4.761719 L 2.855469 -5.445312 L 1.832031 -5.445312 L 1.832031 -6.71875 L 0.941406 -6.71875 L 0.941406 -5.445312 L 0.207031 -5.445312 L 0.207031 -4.761719 L 0.941406 -4.761719 L 0.941406 -1.5625 C 0.941406 -1.253906 0.941406 -1.023438 0.953125 -0.878906 C 1.003906 -0.195312 1.355469 0.0820312 2.039062 0.0820312 C 2.289062 0.0820312 2.535156 0.0742188 2.792969 0.03125 L 2.792969 -0.621094 C 2.101562 -0.539062 1.882812 -0.652344 1.84375 -1.179688 C 1.832031 -1.324219 1.832031 -1.417969 1.832031 -1.605469 Z M 1.832031 -4.761719 "/></g></g></g><g fill="#395a01" fill-opacity="1"><g transform="translate(177.155432, 242.609635)"><g><path d="M 3.519531 -5.628906 C 2.960938 -5.628906 2.378906 -5.453125 2.070312 -5.195312 L 1.65625 -4.605469 L 1.65625 -5.484375 L 0.765625 -5.484375 L 0.765625 2.027344 L 1.65625 2.027344 L 1.65625 -0.753906 L 2.019531 -0.21875 C 2.296875 0.0117188 2.878906 0.144531 3.332031 0.144531 C 4.75 0.144531 6.011719 -0.796875 6.011719 -2.824219 C 6.011719 -4.429688 5.125 -5.628906 3.519531 -5.628906 Z M 3.332031 -0.539062 C 2.546875 -0.539062 1.65625 -1.078125 1.65625 -2.496094 L 1.65625 -2.792969 C 1.65625 -4.367188 2.472656 -4.949219 3.382812 -4.949219 C 4.480469 -4.949219 5.039062 -3.964844 5.039062 -2.722656 C 5.039062 -1.285156 4.296875 -0.539062 3.332031 -0.539062 Z M 3.332031 -0.539062 "/></g></g></g><g fill="#395a01" fill-opacity="1"><g transform="translate(185.787284, 242.609635)"><g><path d="M 3.914062 0 L 4.800781 0 C 4.71875 -0.609375 4.699219 -0.984375 4.699219 -1.398438 L 4.699219 -3.457031 C 4.699219 -3.695312 4.6875 -3.964844 4.667969 -4.179688 C 4.574219 -5.082031 4.027344 -5.628906 2.722656 -5.628906 C 1.511719 -5.628906 0.695312 -4.957031 0.609375 -3.789062 L 1.542969 -3.789062 C 1.605469 -4.542969 1.976562 -4.949219 2.722656 -4.949219 C 3.457031 -4.949219 3.746094 -4.617188 3.789062 -4.109375 C 3.808594 -3.902344 3.808594 -3.683594 3.808594 -3.445312 L 3.808594 -3.300781 L 3.457031 -3.300781 C 1.304688 -3.300781 0.371094 -2.660156 0.371094 -1.417969 C 0.371094 -0.402344 1.148438 0.144531 2.140625 0.144531 C 2.671875 0.144531 3.148438 0.0625 3.519531 -0.195312 L 3.820312 -0.785156 Z M 2.441406 -0.539062 C 1.769531 -0.539062 1.34375 -0.828125 1.34375 -1.492188 C 1.34375 -2.433594 2.296875 -2.753906 3.808594 -2.640625 L 3.808594 -2.082031 C 3.808594 -1.085938 3.269531 -0.539062 2.441406 -0.539062 Z M 2.441406 -0.539062 "/></g></g></g><g fill="#395a01" fill-opacity="1"><g transform="translate(193.591233, 242.609635)"><g><path d="M 2.917969 -5.609375 C 2.660156 -5.609375 2.378906 -5.515625 2.152344 -5.363281 L 1.65625 -4.625 L 1.65625 -5.484375 L 0.765625 -5.484375 L 0.765625 0 L 1.65625 0 L 1.65625 -3.125 C 1.65625 -4.378906 2.359375 -4.925781 3.292969 -4.863281 L 3.292969 -5.539062 C 3.1875 -5.589844 3.0625 -5.609375 2.917969 -5.609375 Z M 2.917969 -5.609375 "/></g></g></g><g fill="#395a01" fill-opacity="1"><g transform="translate(199.315063, 242.609635)"><g><path d="M 1.832031 -4.761719 L 2.855469 -4.761719 L 2.855469 -5.445312 L 1.832031 -5.445312 L 1.832031 -6.71875 L 0.941406 -6.71875 L 0.941406 -5.445312 L 0.207031 -5.445312 L 0.207031 -4.761719 L 0.941406 -4.761719 L 0.941406 -1.5625 C 0.941406 -1.253906 0.941406 -1.023438 0.953125 -0.878906 C 1.003906 -0.195312 1.355469 0.0820312 2.039062 0.0820312 C 2.289062 0.0820312 2.535156 0.0742188 2.792969 0.03125 L 2.792969 -0.621094 C 2.101562 -0.539062 1.882812 -0.652344 1.84375 -1.179688 C 1.832031 -1.324219 1.832031 -1.417969 1.832031 -1.605469 Z M 1.832031 -4.761719 "/></g></g></g><g fill="#395a01" fill-opacity="1"><g transform="translate(204.862962, 242.609635)"><g><path d="M 5.320312 -5.484375 L 4.429688 -5.484375 L 4.429688 -3.074219 C 4.429688 -1.199219 3.746094 -0.558594 2.886719 -0.558594 C 2.140625 -0.558594 1.699219 -0.984375 1.613281 -1.605469 C 1.582031 -1.882812 1.574219 -2.183594 1.574219 -2.359375 L 1.574219 -5.484375 L 0.683594 -5.484375 L 0.683594 -2.195312 C 0.683594 -1.75 0.695312 -1.53125 0.734375 -1.253906 C 0.859375 -0.496094 1.523438 0.144531 2.660156 0.144531 C 3.21875 0.144531 3.621094 0.0507812 4.089844 -0.289062 L 4.429688 -0.929688 L 4.429688 0 L 5.320312 0 Z M 5.320312 -5.484375 "/></g></g></g><g fill="#395a01" fill-opacity="1"><g transform="translate(213.298196, 242.609635)"><g><path d="M 8.0625 -4.296875 C 7.9375 -5.050781 7.378906 -5.628906 6.398438 -5.628906 C 5.910156 -5.628906 5.515625 -5.539062 5.238281 -5.308594 L 4.75 -4.605469 C 4.542969 -5.207031 4.003906 -5.628906 3.167969 -5.628906 C 2.679688 -5.628906 2.289062 -5.539062 2.007812 -5.308594 L 1.65625 -4.6875 L 1.65625 -5.484375 L 0.765625 -5.484375 L 0.765625 0 L 1.65625 0 L 1.65625 -2.710938 C 1.65625 -4.378906 2.164062 -4.925781 2.855469 -4.925781 C 3.476562 -4.925781 3.871094 -4.625 3.953125 -4.003906 C 3.984375 -3.726562 3.996094 -3.425781 3.996094 -2.941406 L 3.996094 0 L 4.886719 0 L 4.886719 -2.710938 C 4.886719 -4.378906 5.390625 -4.925781 6.085938 -4.925781 C 6.707031 -4.925781 7.101562 -4.625 7.183594 -4.003906 C 7.214844 -3.726562 7.222656 -3.425781 7.222656 -2.941406 L 7.222656 0 L 8.113281 0 L 8.113281 -3.351562 C 8.113281 -3.796875 8.105469 -4.015625 8.0625 -4.296875 Z M 8.0625 -4.296875 "/></g></g></g><g fill="#6738c4" fill-opacity="1"><g transform="translate(239.798526, 242.609635)"><g><path d="M 9.78125 -7.140625 L 8.839844 -7.140625 L 7.253906 -0.785156 L 5.640625 -7.039062 L 4.441406 -7.039062 L 2.785156 -0.796875 L 1.285156 -7.140625 L 0.269531 -7.140625 L 2.152344 0 L 3.332031 0 L 5.007812 -6.160156 L 6.625 0 L 7.792969 0 Z M 9.78125 -7.140625 "/></g></g></g><g fill="#6738c4" fill-opacity="1"><g transform="translate(251.95934, 242.609635)"><g><path d="M 1.210938 -7.285156 C 0.890625 -7.285156 0.640625 -7.039062 0.640625 -6.71875 C 0.640625 -6.398438 0.890625 -6.148438 1.210938 -6.148438 C 1.53125 -6.148438 1.78125 -6.398438 1.78125 -6.71875 C 1.78125 -7.039062 1.53125 -7.285156 1.210938 -7.285156 Z M 1.65625 0 L 1.65625 -5.484375 L 0.765625 -5.484375 L 0.765625 0 Z M 1.65625 0 "/></g></g></g><g fill="#6738c4" fill-opacity="1"><g transform="translate(256.731075, 242.609635)"><g><path d="M 1.832031 -4.761719 L 2.855469 -4.761719 L 2.855469 -5.445312 L 1.832031 -5.445312 L 1.832031 -6.71875 L 0.941406 -6.71875 L 0.941406 -5.445312 L 0.207031 -5.445312 L 0.207031 -4.761719 L 0.941406 -4.761719 L 0.941406 -1.5625 C 0.941406 -1.253906 0.941406 -1.023438 0.953125 -0.878906 C 1.003906 -0.195312 1.355469 0.0820312 2.039062 0.0820312 C 2.289062 0.0820312 2.535156 0.0742188 2.792969 0.03125 L 2.792969 -0.621094 C 2.101562 -0.539062 1.882812 -0.652344 1.84375 -1.179688 C 1.832031 -1.324219 1.832031 -1.417969 1.832031 -1.605469 Z M 1.832031 -4.761719 "/></g></g></g><g fill="#6738c4" fill-opacity="1"><g transform="translate(262.278972, 242.609635)"><g><path d="M 5.382812 -4.027344 C 5.300781 -4.988281 4.625 -5.628906 3.425781 -5.628906 C 2.867188 -5.628906 2.464844 -5.539062 1.996094 -5.175781 L 1.65625 -4.542969 L 1.65625 -7.660156 L 0.765625 -7.660156 L 0.765625 0 L 1.65625 0 L 1.65625 -2.410156 C 1.65625 -4.285156 2.378906 -4.90625 3.238281 -4.925781 C 4.089844 -4.949219 4.441406 -4.449219 4.492188 -3.808594 C 4.511719 -3.53125 4.511719 -3.300781 4.511719 -3.023438 L 4.511719 0 L 5.402344 0 L 5.402344 -3.085938 C 5.402344 -3.53125 5.402344 -3.746094 5.382812 -4.027344 Z M 5.382812 -4.027344 "/></g></g></g><g fill="#6738c4" fill-opacity="1"><g transform="translate(270.724548, 242.609635)"><g/></g></g><g fill="#6738c4" fill-opacity="1"><g transform="translate(275.268601, 242.609635)"><g><path d="M 3.261719 -3.652344 L 6.5 -7.140625 L 5.453125 -7.140625 L 1.925781 -3.34375 L 1.925781 -7.140625 L 1.035156 -7.140625 L 1.035156 0 L 1.925781 0 L 1.925781 -2.320312 L 2.609375 -3.054688 L 5.0625 0 L 6.3125 0 Z M 3.261719 -3.652344 "/></g></g></g><g fill="#6738c4" fill-opacity="1"><g transform="translate(283.879755, 242.609635)"><g><path d="M 1.210938 -7.285156 C 0.890625 -7.285156 0.640625 -7.039062 0.640625 -6.71875 C 0.640625 -6.398438 0.890625 -6.148438 1.210938 -6.148438 C 1.53125 -6.148438 1.78125 -6.398438 1.78125 -6.71875 C 1.78125 -7.039062 1.53125 -7.285156 1.210938 -7.285156 Z M 1.65625 0 L 1.65625 -5.484375 L 0.765625 -5.484375 L 0.765625 0 Z M 1.65625 0 "/></g></g></g><g fill="#6738c4" fill-opacity="1"><g transform="translate(288.651491, 242.609635)"><g><path d="M 5.558594 -7.609375 L 4.667969 -7.609375 L 4.667969 -4.730469 L 4.304688 -5.269531 C 4.027344 -5.496094 3.445312 -5.628906 2.992188 -5.628906 C 1.574219 -5.628906 0.308594 -4.6875 0.308594 -2.660156 C 0.308594 -1.054688 1.199219 0.144531 2.804688 0.144531 C 3.363281 0.144531 3.945312 -0.03125 4.253906 -0.289062 L 4.667969 -0.878906 L 4.667969 0 L 5.558594 0 Z M 2.941406 -0.539062 C 1.84375 -0.539062 1.285156 -1.523438 1.285156 -2.761719 C 1.285156 -4.203125 2.027344 -4.949219 2.992188 -4.949219 C 3.777344 -4.949219 4.667969 -4.410156 4.667969 -2.992188 L 4.667969 -2.691406 C 4.667969 -1.117188 3.851562 -0.539062 2.941406 -0.539062 Z M 2.941406 -0.539062 "/></g></g></g><g fill="#6738c4" fill-opacity="1"><g transform="translate(297.32474, 242.609635)"><g><path d="M 2.359375 -5.628906 C 1.230469 -5.628906 0.464844 -5.03125 0.464844 -4.027344 C 0.464844 -3.0625 1.253906 -2.660156 2.234375 -2.390625 C 3.15625 -2.140625 3.53125 -1.863281 3.53125 -1.335938 C 3.53125 -0.808594 3.054688 -0.539062 2.464844 -0.539062 C 1.832031 -0.539062 1.324219 -0.816406 1.179688 -1.613281 L 0.25 -1.613281 C 0.414062 -0.371094 1.273438 0.144531 2.402344 0.144531 C 3.558594 0.144531 4.441406 -0.371094 4.441406 -1.40625 C 4.441406 -2.339844 3.839844 -2.835938 2.578125 -3.167969 C 1.832031 -3.363281 1.375 -3.582031 1.375 -4.128906 C 1.375 -4.605469 1.667969 -4.949219 2.289062 -4.949219 C 2.929688 -4.949219 3.324219 -4.566406 3.445312 -3.921875 L 4.378906 -3.921875 C 4.265625 -4.925781 3.589844 -5.628906 2.359375 -5.628906 Z M 2.359375 -5.628906 "/></g></g></g><g fill="#303030" fill-opacity="1"><g transform="translate(229.652473, 242.609635)"><g><path d="M 2.503906 -2.640625 L 2.503906 -3.21875 L 0.332031 -3.21875 L 0.332031 -2.640625 Z M 2.503906 -2.640625 "/></g></g></g><g fill="#303030" fill-opacity="1"><g transform="translate(138.815673, 242.609635)"><g><path d="M 2.503906 -2.640625 L 2.503906 -3.21875 L 0.332031 -3.21875 L 0.332031 -2.640625 Z M 2.503906 -2.640625 "/></g></g></g></svg>